<svg width="16" height="14" viewBox="0 0 16 14" fill="none" xmlns="http://www.w3.org/2000/svg">
<path d="M8 14C7.825 14 7.64688 13.967 7.46563 13.901C7.28438 13.835 7.125 13.7294 6.9875 13.5842L5.69375 12.3366C4.36875 11.0561 3.17188 9.78548 2.10313 8.52475C1.03438 7.26403 0.5 5.87459 0.5 4.35644C0.5 3.11551 0.89375 2.07921 1.68125 1.24752C2.46875 0.415842 3.45 0 4.625 0C5.2875 0 5.9125 0.148515 6.5 0.445545C7.0875 0.742574 7.5875 1.14851 8 1.66337C8.4125 1.14851 8.9125 0.742574 9.5 0.445545C10.0875 0.148515 10.7125 0 11.375 0C12.55 0 13.5313 0.415842 14.3188 1.24752C15.1063 2.07921 15.5 3.11551 15.5 4.35644C15.5 5.87459 14.9688 7.26733 13.9063 8.53465C12.8438 9.80198 11.6375 11.0759 10.2875 12.3564L9.0125 13.5842C8.875 13.7294 8.71563 13.835 8.53438 13.901C8.35313 13.967 8.175 14 8 14ZM7.2875 3.24752C6.925 2.70627 6.5375 2.29373 6.125 2.0099C5.7125 1.72607 5.2125 1.58416 4.625 1.58416C3.875 1.58416 3.25 1.84818 2.75 2.37624C2.25 2.90429 2 3.56436 2 4.35644C2 5.0429 2.23125 5.77228 2.69375 6.54455C3.15625 7.31683 3.70938 8.06601 4.35313 8.79208C4.99688 9.51815 5.65938 10.198 6.34063 10.8317C7.02188 11.4653 7.575 11.9868 8 12.396C8.425 11.9868 8.97813 11.4653 9.65938 10.8317C10.3406 10.198 11.0031 9.51815 11.6469 8.79208C12.2906 8.06601 12.8438 7.31683 13.3063 6.54455C13.7688 5.77228 14 5.0429 14 4.35644C14 3.56436 13.75 2.90429 13.25 2.37624C12.75 1.84818 12.125 1.58416 11.375 1.58416C10.7875 1.58416 10.2875 1.72607 9.875 2.0099C9.4625 2.29373 9.075 2.70627 8.7125 3.24752C8.625 3.37954 8.51875 3.47855 8.39375 3.54455C8.26875 3.61056 8.1375 3.64356 8 3.64356C7.8625 3.64356 7.73125 3.61056 7.60625 3.54455C7.48125 3.47855 7.375 3.37954 7.2875 3.24752Z" fill="#90FF00"/>
</svg>
