<svg width="238" height="212" viewBox="0 0 238 212" fill="none" xmlns="http://www.w3.org/2000/svg">
<rect width="238" height="211.2" rx="24" fill="#3D3D3D"/>
<path d="M116.707 50.9758H121.242L123.176 53.4543C124.389 52.0481 125.092 49.886 125.074 47.0735C125.092 41.6243 122.49 38.6887 118.57 38.6711C114.615 38.6887 112.031 41.6243 112.031 47.0735C112.031 52.5051 114.615 55.4583 118.57 55.4758C119.08 55.4758 119.572 55.4231 120.029 55.3176L116.707 50.9758ZM106.652 47.0735C106.652 38.759 111.785 33.9954 118.57 33.9954C125.303 33.9954 130.453 38.759 130.453 47.0735C130.453 51.6262 128.906 55.1067 126.41 57.3391L130.031 61.9094H125.074L123.035 59.3782C121.664 59.8879 120.152 60.1516 118.57 60.1516C111.785 60.1516 106.652 55.3528 106.652 47.0735Z" fill="#C2C2C2"/>
<g clip-path="url(#clip0_459_12873)">
<rect x="20.2002" y="139.2" width="196.8" height="48" rx="24" fill="#5C5C5C"/>
<rect x="20.2002" y="84.8" width="196.8" height="48" rx="24" fill="#5C5C5C"/>
<path d="M20.2002 108.8C20.2002 95.5452 30.9454 84.8 44.2002 84.8H80.2002V132.8H44.2002C30.9454 132.8 20.2002 122.055 20.2002 108.8Z" fill="#90FF00"/>
<rect x="80" y="85" width="24" height="48" fill="#FFE81A"/>
<rect x="104" y="85" width="58" height="48" fill="#3BFFDC"/>
<path d="M217 109C217 95.7452 206.255 85 193 85H162V133H193C206.255 133 217 122.255 217 109Z" fill="#FF96F5"/>
</g>
<defs>
<clipPath id="clip0_459_12873">
<rect width="197.6" height="102.4" fill="white" transform="translate(20.2002 84.8)"/>
</clipPath>
</defs>
</svg>
