<svg width="238" height="212" viewBox="0 0 238 212" fill="none" xmlns="http://www.w3.org/2000/svg">
<rect width="238" height="211.2" rx="24" fill="#3D3D3D"/>
<g clip-path="url(#clip0_459_12835)">
<rect x="20.1997" y="78.3999" width="196.8" height="48" rx="24" fill="#5C5C5C"/>
<path d="M114.031 109.72V95.5791H119.656C122.771 95.5791 124.354 97.083 124.344 99.2119C124.354 100.872 123.26 101.917 121.805 102.239V102.376C123.396 102.454 124.9 103.724 124.91 105.813C124.9 108.06 123.221 109.72 120.027 109.72H114.031ZM116.961 107.298H119.441C121.141 107.308 121.873 106.604 121.863 105.54C121.873 104.349 120.965 103.509 119.52 103.509H116.961V107.298ZM116.961 101.497H119.227C120.457 101.507 121.385 100.813 121.375 99.6807C121.385 98.6553 120.623 97.9619 119.285 97.9619H116.961V101.497Z" fill="#C2C2C2"/>
<rect x="20.1997" y="24" width="196.8" height="48" rx="24" fill="#5C5C5C"/>
<path d="M116.395 55.3198H113.23L118.133 41.1792H121.902L126.785 55.3198H123.641L122.576 52.0581H117.459L116.395 55.3198ZM118.201 49.7729H121.834L120.066 44.3628H119.969L118.201 49.7729Z" fill="#C2C2C2"/>
</g>
<rect x="121.8" y="136" width="95.2" height="51.2" rx="25.6" fill="#90FF00"/>
<path d="M164.224 168.8V154.659H169.849C172.964 154.659 174.546 156.163 174.536 158.292C174.546 159.952 173.452 160.997 171.997 161.32V161.456C173.589 161.534 175.093 162.804 175.103 164.894C175.093 167.14 173.413 168.8 170.22 168.8H164.224ZM167.154 166.378H169.634C171.333 166.388 172.066 165.685 172.056 164.62C172.066 163.429 171.158 162.589 169.712 162.589H167.154V166.378ZM167.154 160.577H169.419C170.65 160.587 171.577 159.894 171.568 158.761C171.577 157.736 170.816 157.042 169.478 157.042H167.154V160.577Z" fill="black"/>
<rect x="20.1997" y="136" width="95.2" height="51.2" rx="25.6" fill="#90FF00"/>
<path d="M64.1771 168.8H61.013L65.9153 154.659H69.6849L74.5677 168.8H71.4231L70.3587 165.538H65.2415L64.1771 168.8ZM65.9837 163.253H69.6165L67.8489 157.843H67.7513L65.9837 163.253Z" fill="black"/>
<defs>
<clipPath id="clip0_459_12835">
<rect width="197.6" height="102.4" fill="white" transform="translate(20.1997 24)"/>
</clipPath>
</defs>
</svg>
