<svg width="14" height="16" viewBox="0 0 14 16" fill="none" xmlns="http://www.w3.org/2000/svg">
<path d="M1.55556 15.5C1.12778 15.5 0.761574 15.3492 0.456944 15.0475C0.152315 14.7459 0 14.3832 0 13.9596V10.4553L2.13889 8.04854L3.24722 9.14604L1.69167 10.8789H12.3083L10.7917 9.18455L11.9 8.08705L14 10.4553V13.9596C14 14.3832 13.8477 14.7459 13.5431 15.0475C13.2384 15.3492 12.8722 15.5 12.4444 15.5H1.55556ZM1.55556 13.9596H12.4444V12.4193H1.55556V13.9596ZM5.93056 9.6274L3.18889 6.91253C2.89074 6.61729 2.74491 6.25467 2.75139 5.82465C2.75787 5.39464 2.91019 5.03201 3.20833 4.73678L7.01944 0.962908C7.31759 0.667674 7.68704 0.513639 8.12778 0.500802C8.56852 0.487966 8.93796 0.629165 9.23611 0.9244L11.9778 3.63927C12.2759 3.93451 12.4315 4.29392 12.4444 4.71752C12.4574 5.14112 12.3148 5.50053 12.0167 5.79577L8.12778 9.64665C7.82963 9.94189 7.46343 10.0863 7.02917 10.0799C6.59491 10.0735 6.2287 9.92263 5.93056 9.6274ZM10.8889 4.73678L8.14722 2.0219L4.29722 5.83428L7.03889 8.54915L10.8889 4.73678Z" fill="#C2C2C2"/>
</svg>
