<svg width="56" height="56" viewBox="0 0 56 56" fill="none" xmlns="http://www.w3.org/2000/svg">
<circle cx="28" cy="28" r="28" fill="#FFE812"/>
<path fill-rule="evenodd" clip-rule="evenodd" d="M40.9031 22.3042C40.5537 21.5944 40.1192 20.9107 39.6117 20.2729C39.1104 19.6383 38.5361 19.043 37.901 18.5033C37.266 17.9603 36.5702 17.4696 35.8288 17.0411C35.0813 16.6093 34.2791 16.2364 33.4496 15.9388C31.7237 15.314 29.8915 15 28.0015 15C26.1116 15 24.2793 15.3173 22.5534 15.9388C21.7239 16.2397 20.9248 16.6093 20.1743 17.0411C19.4329 17.4696 18.7371 17.9603 18.102 18.5033C17.47 19.043 16.8927 19.6416 16.3913 20.2729C15.8869 20.914 15.4524 21.5977 15.0999 22.3042C14.3707 23.7794 14 25.3463 14 26.9621C14 28.0089 14.158 29.0491 14.471 30.05C14.7748 31.0215 15.2215 31.9603 15.8018 32.8369C16.3731 33.7005 17.0689 34.5019 17.8741 35.2215C18.6763 35.9379 19.5818 36.5692 20.5632 37.0991C20.2411 38.3061 19.1837 42.2706 19.1381 42.5977C19.1381 42.6075 19.1138 42.8561 19.2627 42.9509C19.3144 42.9836 19.3751 43 19.442 43C19.5271 43 19.5939 42.9738 19.597 42.9706C20.0345 42.9051 24.6014 39.428 25.513 38.7346C26.3273 38.8589 27.1629 38.9243 27.9985 38.9243C29.8884 38.9243 31.7207 38.607 33.4466 37.9822C34.2761 37.6813 35.0752 37.3117 35.8257 36.8799C36.5671 36.4514 37.2629 35.9607 37.898 35.4178C38.53 34.8748 39.1073 34.2794 39.6087 33.6481C40.1131 33.007 40.5476 32.3234 40.9001 31.6168C41.6293 30.1416 42 28.5748 42 26.9589C42 25.343 41.6293 23.7762 40.9001 22.3009L40.9031 22.3042Z" fill="black"/>
</svg>
