<svg width="76" height="64" viewBox="0 0 76 64" fill="none" xmlns="http://www.w3.org/2000/svg">
<path fill-rule="evenodd" clip-rule="evenodd" d="M69.6896 22.7783C68.6565 23.7223 67.5673 24.6028 66.4112 25.3957C66.355 25.4355 66.1891 25.5469 66.0312 25.6583C66.1623 25.5601 65.4317 26.0269 65.2845 26.1091C64.5566 26.5201 63.8126 26.9047 63.0553 27.2574C62.5468 27.4934 62.0303 27.7135 61.5084 27.9257C61.2596 20.2403 58.8403 12.1917 53.2497 6.78441C49.5084 3.16982 44.8251 0.531136 39.5369 0.0696988C34.768 -0.344004 29.8946 1.096 26.1533 4.06882C17.8893 10.6403 18.4887 22.6457 25.2515 30.0552C31.313 36.6956 39.7644 40.0053 48.4754 40.4402C48.3925 40.6311 48.3148 40.8247 48.2292 41.0156C48.066 41.3736 47.8974 41.7317 47.7207 42.0844C47.6672 42.1931 47.4263 42.6333 47.3327 42.8137C47.2203 43.0019 47.0945 43.2141 47.0517 43.2804C46.8135 43.6702 46.5646 44.0521 46.3077 44.4313C45.8688 45.0758 45.4058 45.7043 44.9161 46.3116C44.6726 46.6139 44.421 46.9109 44.1641 47.2053C44.0624 47.3219 43.958 47.4333 43.8563 47.5474C42.6868 48.64 41.5146 49.6848 40.1819 50.5865C40.0588 50.6713 39.933 50.7509 39.8072 50.8331C39.5236 50.9922 39.0552 51.2415 38.9964 51.2733C38.2577 51.6605 37.4977 52.0079 36.7189 52.3102C36.4486 52.4163 36.1757 52.5091 35.9027 52.6073C35.7956 52.6391 35.6886 52.6815 35.5949 52.7054C34.8242 52.9096 34.0427 53.074 33.2559 53.1987C32.528 53.3127 31.7974 53.379 31.0615 53.4426C31.0293 53.4453 30.9999 53.4479 30.9731 53.4506C30.5583 53.4506 30.1462 53.4453 29.7314 53.4267C28.9928 53.3949 28.2568 53.3312 27.5235 53.2384C26.7876 53.1456 25.9767 52.8619 25.2381 52.8327C25.1979 52.8221 25.1578 52.8115 25.1176 52.8009C24.7617 52.7001 24.4058 52.594 24.0552 52.48C23.2925 52.2333 22.5431 51.9522 21.8072 51.6367C21.4673 51.4908 21.1301 51.3396 20.7983 51.1805C20.7474 51.1567 20.6297 51.0983 20.4985 51.0373C20.4878 51.0214 19.8777 50.6979 19.7465 50.6183C19.3799 50.3955 19.0186 50.1648 18.6627 49.9262C18.0552 49.5151 17.4637 49.0775 16.8964 48.6134C16.6127 48.3827 16.3371 48.1414 16.0614 47.9001C16.048 47.8895 16.032 47.8736 16.0133 47.855C15.9517 47.786 15.8955 47.7224 15.8661 47.6932C15.8928 47.7224 15.9303 47.7648 15.9758 47.8179C15.9009 47.741 15.8179 47.6455 15.8018 47.6243C15.3148 47.1178 14.8491 46.59 14.4102 46.0411C14.1801 45.7547 13.9606 45.4603 13.7465 45.1633C13.6395 45.0148 13.5378 44.861 13.4307 44.7124C13.0748 44.2139 13.2782 44.6117 13.4709 44.8477C13.0293 44.3756 12.7055 43.4183 12.4459 42.8667C12.1114 42.156 11.833 41.4293 11.5574 40.6948C11.544 40.6603 11.5333 40.6338 11.5226 40.6072C11.4316 40.2678 11.3379 39.9283 11.2577 39.5836C11.0784 38.8198 10.9392 38.0508 10.8322 37.2738C10.7519 36.6877 10.7064 36.1016 10.6636 35.5129C10.6689 35.3723 10.6502 35.2132 10.6502 35.0832C10.6528 34.6589 10.6662 34.2373 10.6903 33.8156C10.7305 33.0916 10.8 32.3677 10.9017 31.649C10.9526 31.2883 11.0088 30.9303 11.0757 30.575C11.1185 30.3442 11.3513 29.0262 11.2095 29.8457C11.0677 30.6625 11.3058 29.5195 11.3674 29.31C11.4691 28.9626 11.5788 28.6152 11.6939 28.2731C11.9454 27.5305 12.2318 26.7986 12.5503 26.0799C12.6975 25.7484 12.8527 25.4222 13.0132 25.0987L5.07835 17.7343C2.05158 22.2691 0.255855 27.6021 0.0283795 33.0996C-0.303468 41.0528 2.26835 49.2473 8.09173 54.9091C13.8268 60.4835 21.6493 64.0053 29.7608 64C33.9972 64 38.1186 63.3184 42.0178 61.6053C46.1177 59.802 49.586 57.0334 52.5566 53.7449C56.1909 49.722 58.7734 44.6408 60.2051 39.3211C64.6637 38.2391 68.9295 36.4251 72.6949 33.9403C73.8591 33.1739 74.9563 32.3252 76 31.4077L69.6869 22.7783H69.6896ZM50.8438 29.9279C50.8438 29.9279 50.8438 29.9517 50.8438 29.965C49.2702 29.9385 47.6966 29.8059 46.1418 29.5593C45.7591 29.4983 45.3791 29.432 44.999 29.3577C44.9268 29.3445 44.8519 29.3285 44.7796 29.3126C44.0115 28.9864 43.0802 28.8645 42.2907 28.5966C41.5601 28.3473 40.8376 28.0715 40.1257 27.7666C39.7698 27.6154 39.4165 27.4563 39.0686 27.2892C38.9455 27.2309 38.4825 26.9922 38.2524 26.8782C38.0195 26.7402 37.6154 26.5069 37.5137 26.4432C37.123 26.2019 36.7377 25.9526 36.3603 25.6927C35.611 25.1783 34.9152 24.6107 34.2194 24.03C34.5057 24.2633 33.917 23.7489 33.7055 23.5208C33.3951 23.1893 33.0954 22.8472 32.8117 22.4918C32.5441 22.1577 32.3059 21.7997 32.0463 21.4602C31.9419 21.272 31.8349 21.0863 31.7359 20.8927C31.5485 20.5294 31.3799 20.1581 31.2247 19.7816C31.1685 19.6463 30.9919 19.0735 30.9357 18.9276C30.8875 18.7049 30.834 18.445 30.8179 18.3654C30.7992 18.2726 30.6814 17.416 30.6413 17.0872C30.6413 16.9811 30.6413 16.8724 30.6493 16.7663C30.6707 16.3632 30.7296 15.9654 30.7751 15.565C30.7805 15.5172 30.7831 15.4775 30.7885 15.4403C30.7965 15.4218 30.8019 15.4006 30.8099 15.3793C30.9544 14.9789 31.1337 14.5864 31.2782 14.186C31.3318 14.0905 31.3826 13.9977 31.396 13.9738C31.6074 13.6556 31.8376 13.348 32.0811 13.0509C32.0945 13.035 32.1587 12.9661 32.2336 12.8839C32.5735 12.616 32.8839 12.3084 33.2318 12.0485C33.3603 11.953 33.4995 11.8629 33.6279 11.7674C33.917 11.6162 34.3532 11.3961 34.4094 11.3696C34.7653 11.2052 35.1319 11.0646 35.4959 10.9214C35.5039 10.9188 35.512 10.9161 35.5227 10.9108C35.6565 10.879 35.8117 10.8419 35.8652 10.8313C36.2479 10.7464 36.6333 10.6775 37.024 10.6271C37.2247 10.6005 38.4611 10.4441 37.6716 10.5502C36.9196 10.6509 38.2042 10.5952 38.4611 10.6191C38.7608 10.6456 39.7939 10.6191 40.0026 10.8366C39.9972 10.8313 39.0499 10.5555 39.6868 10.7597C39.8982 10.8286 40.115 10.879 40.3264 10.948C40.7493 11.0832 41.1694 11.237 41.5816 11.4067C41.9964 11.5765 42.3924 11.778 42.7992 11.9663C41.8733 11.5367 43.0026 12.1095 43.3211 12.3217C44.041 12.7964 44.694 13.332 45.355 13.881C45.4834 14.0162 45.6146 14.1488 45.743 14.2841C46.099 14.666 46.4388 15.0611 46.76 15.4722C47.0196 15.8037 47.2604 16.1458 47.5066 16.4879C47.5575 16.5568 47.5923 16.6045 47.6244 16.6443C47.6431 16.6761 47.6592 16.708 47.6833 16.7504C48.1302 17.5433 48.5477 18.3442 48.9116 19.1769C49.0802 19.5615 49.2381 19.9486 49.3853 20.3411C49.4148 20.4207 49.5164 20.6912 49.5994 20.9166C49.6262 21.0253 49.8349 21.6857 49.8724 21.8289C49.9982 22.3036 50.1106 22.7836 50.2123 23.2636C50.5441 24.8415 50.7154 26.422 50.8492 28.0238C50.8305 28.1723 50.8733 28.4348 50.8733 28.5409C50.8733 29.0024 50.8652 29.4638 50.8465 29.9252L50.8438 29.9279Z" fill="#90FF00"/>
</svg>
