<svg width="60" height="60" viewBox="0 0 60 60" fill="none" xmlns="http://www.w3.org/2000/svg">
<circle cx="30" cy="30" r="28" fill="white"/>
<g clip-path="url(#clip0_199_16721)">
<path d="M42.1855 22.9176C40.0554 24.2353 38.7398 26.4941 38.7398 29.0039C38.7398 31.8275 40.4313 34.4 43 35.4667C42.4988 37.098 41.747 38.6039 40.8072 39.9843C39.4289 41.9294 37.988 43.9373 35.8578 43.9373C33.7277 43.9373 33.1012 42.6824 30.5952 42.6824C28.1518 42.6824 27.2747 44 25.2699 44C23.2651 44 21.8867 42.1804 20.3205 39.9216C18.253 36.7843 17.0627 33.1451 17 29.3176C17 23.1059 21.0096 19.7804 25.0193 19.7804C27.1494 19.7804 28.9036 21.1608 30.2193 21.1608C31.4723 21.1608 33.4771 19.7176 35.8578 19.7176C38.3639 19.6549 40.7446 20.8471 42.1855 22.9176ZM34.7301 17.0824C35.7952 15.8275 36.359 14.2588 36.4217 12.6275C36.4217 12.4392 36.4217 12.1882 36.359 12C34.5422 12.1882 32.8506 13.0667 31.6602 14.4471C30.5952 15.6392 29.9687 17.1451 29.906 18.7765C29.906 18.9647 29.906 19.1529 29.9687 19.3412C30.094 19.3412 30.2819 19.4039 30.4072 19.4039C32.0988 19.2784 33.6651 18.4 34.7301 17.0824Z" fill="black"/>
</g>
<defs>
<clipPath id="clip0_199_16721">
<rect width="26" height="32" fill="white" transform="translate(17 12)"/>
</clipPath>
</defs>
</svg>
