<svg width="162" height="48" viewBox="0 0 162 48" fill="none" xmlns="http://www.w3.org/2000/svg">
<path fill-rule="evenodd" clip-rule="evenodd" d="M51.9781 17.0837C51.2076 17.7918 50.3952 18.4521 49.5329 19.0468C49.491 19.0766 49.3672 19.1602 49.2495 19.2437C49.3473 19.1701 48.8024 19.5202 48.6926 19.5818C48.1497 19.8901 47.5948 20.1785 47.0299 20.443C46.6506 20.6201 46.2654 20.7851 45.8762 20.9443C45.6905 15.1803 43.8861 9.14378 39.7164 5.08831C36.9259 2.37736 33.4329 0.398352 29.4887 0.0522741C25.9318 -0.258003 22.297 0.821999 19.5065 3.05162C13.3427 7.98025 13.7898 16.9842 18.8338 22.5414C23.3549 27.5217 29.6584 30.0039 36.1555 30.3301C36.0936 30.4733 36.0357 30.6185 35.9718 30.7617C35.8501 31.0302 35.7243 31.2987 35.5926 31.5633C35.5527 31.6448 35.373 31.975 35.3032 32.1102C35.2193 32.2515 35.1255 32.4106 35.0936 32.4603C34.9159 32.7527 34.7303 33.0391 34.5387 33.3235C34.2113 33.8068 33.866 34.2782 33.5007 34.7337C33.3191 34.9604 33.1315 35.1832 32.9398 35.4039C32.864 35.4915 32.7862 35.575 32.7103 35.6605C31.838 36.48 30.9638 37.2636 29.9697 37.9399C29.8779 38.0035 29.7841 38.0632 29.6903 38.1248C29.4787 38.2442 29.1294 38.4311 29.0855 38.455C28.5346 38.7454 27.9677 39.0059 27.3869 39.2327C27.1853 39.3122 26.9817 39.3819 26.7781 39.4554C26.6982 39.4793 26.6184 39.5111 26.5485 39.529C25.9737 39.6822 25.3908 39.8055 24.804 39.899C24.2611 39.9845 23.7161 40.0342 23.1672 40.082C23.1433 40.084 23.1213 40.0859 23.1014 40.0879C22.792 40.0879 22.4846 40.084 22.1752 40.07C21.6243 40.0462 21.0754 39.9984 20.5285 39.9288C19.9796 39.8592 19.3748 39.6464 18.8239 39.6245C18.7939 39.6166 18.764 39.6086 18.734 39.6006C18.4686 39.5251 18.2031 39.4455 17.9416 39.36C17.3727 39.175 16.8138 38.9642 16.2649 38.7275C16.0114 38.6181 15.7599 38.5047 15.5124 38.3854C15.4745 38.3675 15.3867 38.3237 15.2889 38.278C15.2809 38.2661 14.8258 38.0234 14.728 37.9637C14.4545 37.7967 14.1851 37.6236 13.9196 37.4446C13.4665 37.1363 13.0254 36.8082 12.6022 36.4601C12.3906 36.287 12.185 36.106 11.9794 35.9251C11.9695 35.9171 11.9575 35.9052 11.9435 35.8912C11.8976 35.8395 11.8557 35.7918 11.8337 35.7699C11.8537 35.7918 11.8816 35.8236 11.9156 35.8634C11.8597 35.8057 11.7978 35.7341 11.7858 35.7182C11.4225 35.3383 11.0752 34.9425 10.7479 34.5308C10.5762 34.316 10.4125 34.0952 10.2529 33.8725C10.173 33.7611 10.0972 33.6457 10.0173 33.5343C9.75186 33.1604 9.90356 33.4588 10.0473 33.6358C9.71793 33.2817 9.4764 32.5637 9.28279 32.15C9.03328 31.617 8.8257 31.072 8.6201 30.5211C8.61012 30.4952 8.60214 30.4753 8.59416 30.4554C8.52629 30.2008 8.45643 29.9463 8.39655 29.6877C8.26281 29.1149 8.15902 28.5381 8.07918 27.9553C8.0193 27.5158 7.98536 27.0762 7.95343 26.6347C7.95742 26.5292 7.94345 26.4099 7.94345 26.3124C7.94544 25.9942 7.95542 25.678 7.97339 25.3617C8.00333 24.8187 8.05522 24.2757 8.13107 23.7367C8.169 23.4662 8.21092 23.1977 8.26082 22.9312C8.29275 22.7582 8.46641 21.7697 8.36062 22.3843C8.25483 22.9969 8.43248 22.1396 8.47838 21.9825C8.55423 21.7219 8.63607 21.4614 8.7219 21.2048C8.90953 20.6479 9.12311 20.0989 9.36063 19.5599C9.47042 19.3113 9.58619 19.0667 9.70595 18.824L3.78769 13.3007C1.53017 16.7018 0.19083 20.7016 0.0211669 24.8247C-0.226342 30.7896 1.69185 36.9354 6.03523 41.1819C10.3127 45.3626 16.1472 48.004 22.1972 48C25.3569 48 28.4308 47.4888 31.339 46.204C34.397 44.8515 36.9838 42.775 39.1994 40.3087C41.91 37.2915 43.8362 33.4806 44.9041 29.4908C48.2295 28.6793 51.4112 27.3189 54.2196 25.4552C55.0879 24.8804 55.9063 24.2439 56.6847 23.5557L51.9761 17.0837H51.9781ZM37.922 22.4459C37.922 22.4459 37.922 22.4638 37.922 22.4738C36.7483 22.4539 35.5746 22.3544 34.4149 22.1694C34.1295 22.1237 33.846 22.074 33.5626 22.0183C33.5087 22.0083 33.4528 21.9964 33.3989 21.9845C32.8261 21.7398 32.1315 21.6483 31.5426 21.4475C30.9977 21.2605 30.4588 21.0536 29.9278 20.8249C29.6623 20.7115 29.3989 20.5922 29.1394 20.4669C29.0476 20.4231 28.7023 20.2441 28.5306 20.1586C28.3569 20.0552 28.0555 19.8802 27.9797 19.8324C27.6883 19.6514 27.4008 19.4645 27.1194 19.2696C26.5605 18.8837 26.0415 18.4581 25.5226 18.0225C25.7361 18.1975 25.297 17.8116 25.1393 17.6406C24.9078 17.392 24.6842 17.1354 24.4726 16.8689C24.273 16.6183 24.0954 16.3498 23.9018 16.0952C23.8239 15.954 23.7441 15.8147 23.6702 15.6695C23.5305 15.3971 23.4048 15.1186 23.289 14.8362C23.2471 14.7347 23.1153 14.3051 23.0734 14.1957C23.0375 14.0287 22.9976 13.8337 22.9856 13.7741C22.9716 13.7045 22.8838 13.062 22.8539 12.8154C22.8539 12.7358 22.8539 12.6543 22.8598 12.5747C22.8758 12.2724 22.9197 11.9741 22.9537 11.6737C22.9577 11.6379 22.9597 11.6081 22.9636 11.5803C22.9696 11.5663 22.9736 11.5504 22.9796 11.5345C23.0874 11.2342 23.2211 10.9398 23.3289 10.6395C23.3688 10.5679 23.4068 10.4983 23.4167 10.4804C23.5744 10.2417 23.7461 10.011 23.9277 9.78821C23.9377 9.77627 23.9856 9.72456 24.0415 9.6629C24.295 9.46202 24.5265 9.2313 24.786 9.03638C24.8818 8.96478 24.9856 8.89715 25.0814 8.82555C25.297 8.71218 25.6224 8.5471 25.6643 8.52721C25.9298 8.40389 26.2032 8.29848 26.4747 8.19108C26.4807 8.18909 26.4867 8.1871 26.4946 8.18312C26.5944 8.15925 26.7102 8.13141 26.7501 8.12345C27.0356 8.0598 27.323 8.00809 27.6144 7.9703C27.7641 7.95041 28.6863 7.83306 28.0975 7.91262C27.5366 7.9882 28.4947 7.94643 28.6863 7.96433C28.9098 7.98422 29.6803 7.96433 29.836 8.12743C29.832 8.12345 29.1254 7.9166 29.6005 8.06975C29.7582 8.12146 29.9198 8.15925 30.0775 8.21097C30.3929 8.3124 30.7063 8.42776 31.0137 8.55505C31.3231 8.68235 31.6185 8.83351 31.9219 8.97472C31.2312 8.65251 32.0736 9.08213 32.3111 9.24124C32.848 9.59727 33.3351 9.99903 33.8281 10.4107C33.9239 10.5122 34.0217 10.6116 34.1175 10.7131C34.383 10.9995 34.6365 11.2958 34.876 11.6041C35.0696 11.8527 35.2493 12.1093 35.4329 12.3659C35.4708 12.4176 35.4968 12.4534 35.5207 12.4832C35.5347 12.5071 35.5467 12.531 35.5646 12.5628C35.898 13.1575 36.2094 13.7582 36.4808 14.3827C36.6066 14.6711 36.7243 14.9615 36.8341 15.2558C36.8561 15.3155 36.9319 15.5184 36.9938 15.6874C37.0138 15.769 37.1695 16.2642 37.1974 16.3716C37.2912 16.7277 37.375 17.0877 37.4509 17.4477C37.6984 18.6311 37.8261 19.8165 37.9259 21.0178C37.912 21.1292 37.9439 21.3261 37.9439 21.4057C37.9439 21.7518 37.9379 22.0978 37.924 22.4439L37.922 22.4459Z" fill="#252525"/>
<path d="M146.135 47.4866V0.509216H162.001V7.60376H153.072V19.9393H159.496V27.4813H153.072V40.392H162.001V47.4866H146.135Z" fill="#252525"/>
<path d="M135.89 31.3822H142.378V37.8376C142.314 39.755 141.929 41.4807 141.222 42.9507C140.644 44.229 139.745 45.4434 138.46 46.4021C137.175 47.4248 135.441 48 133.128 48C130.816 48 129.017 47.4248 127.732 46.4021C126.447 45.4434 125.612 44.229 125.034 42.9507C124.328 41.4807 123.942 39.755 123.878 37.8376V10.1625C123.942 8.30892 124.328 6.58322 125.034 5.11318C125.612 3.83489 126.447 2.55659 127.732 1.59787C129.017 0.639149 130.816 0 133.128 0C135.441 0 137.175 0.639149 138.46 1.59787C139.745 2.55659 140.644 3.83489 141.222 5.11318C141.929 6.58322 142.314 8.30892 142.378 10.1625V16.6178H135.89V10.1625C135.89 8.88416 135.569 7.98935 134.863 7.22237C134.541 6.9028 133.963 6.71105 133.257 6.71105C132.036 6.71105 131.458 7.60586 131.137 8.43676C130.944 8.94807 130.88 9.5233 130.816 10.1625V37.8376C130.88 39.1798 131.265 40.0746 131.908 40.7776C132.229 41.0972 132.678 41.289 133.257 41.289C134.734 41.289 135.312 40.522 135.633 39.5633C135.826 39.1158 135.89 38.5406 135.89 37.8376V31.3822Z" fill="#252525"/>
<path d="M105.52 47.4866H98.7754L105.906 0.509216H114.385L121.515 47.4866H114.771L113.486 37.8994H106.805L105.52 47.4866ZM112.522 30.6131L110.531 15.7849L110.338 14.5705H109.953L109.76 15.7849L107.769 30.6131H112.522Z" fill="#252525"/>
<path d="M81.2812 47.4865V0.509094H97.1479V7.60364H88.2189V19.9392H94.6426V27.4811H88.2189V40.3919H97.1479V47.4865H81.2812Z" fill="#252525"/>
<path d="M59.0996 47.4863V0.508911H66.0373C69.0564 0.508911 72.0756 1.27589 74.3881 3.44899C76.7007 5.62209 78.2424 9.20132 78.2424 14.5702C78.2424 19.939 76.7007 23.4543 74.3881 25.6274C72.0756 27.8005 69.0564 28.6953 66.0373 28.6953V47.4863H59.0996ZM66.0373 7.53954V21.6647C68.1571 21.6647 69.5061 21.2812 70.2769 20.1947C71.0478 19.172 71.2405 17.4463 71.2405 14.8258C71.2405 12.2053 71.0478 10.3518 70.2769 9.20132C69.5061 8.05085 68.1571 7.53954 66.0373 7.53954Z" fill="#252525"/>
</svg>
