<svg width="20" height="20" viewBox="0 0 20 20" fill="none" xmlns="http://www.w3.org/2000/svg">
<g clip-path="url(#clip0_155_27424)">
<path d="M10 0C9.50227 0 9.01364 0.0363636 8.53636 0.106818C8.35909 0.134091 8.21591 0.261364 8.16818 0.434091L7.58636 2.45227C7.16591 2.58636 6.75682 2.75 6.37273 2.95L4.53409 1.94091C4.37955 1.85455 4.18864 1.86591 4.04318 1.96818C3.65682 2.25682 3.27955 2.575 2.92727 2.92727C2.575 3.27955 2.25682 3.65455 1.96818 4.04318C1.86364 4.18636 1.85227 4.37727 1.94091 4.53409L2.95 6.37273C2.75 6.75909 2.58864 7.16591 2.45227 7.58636L0.434091 8.16818C0.261364 8.21591 0.134091 8.36136 0.106818 8.53636C0.0363636 9.01364 0 9.50227 0 10C0 10.4977 0.0363636 10.9864 0.106818 11.4636C0.134091 11.6409 0.261364 11.7841 0.434091 11.8318L2.45227 12.4136C2.58636 12.8341 2.75 13.2432 2.95 13.6273L1.94091 15.4659C1.85455 15.6205 1.86591 15.8114 1.96818 15.9568C2.25682 16.3432 2.575 16.7205 2.92727 17.0727C3.27955 17.425 3.65455 17.7432 4.04318 18.0318C4.18636 18.1364 4.37727 18.1477 4.53409 18.0591L6.37273 17.05C6.75909 17.25 7.16591 17.4114 7.58636 17.5477L8.16818 19.5659C8.21591 19.7386 8.36136 19.8659 8.53636 19.8932C9.01364 19.9636 9.50227 20 10 20C10.4977 20 10.9864 19.9636 11.4636 19.8932C11.6409 19.8659 11.7841 19.7386 11.8318 19.5659L12.4136 17.5477C12.8341 17.4136 13.2432 17.25 13.6273 17.05L15.4659 18.0591C15.6205 18.1455 15.8114 18.1341 15.9568 18.0318C16.3432 17.7432 16.7205 17.425 17.0727 17.0727C17.425 16.7205 17.7432 16.3455 18.0318 15.9568C18.1364 15.8136 18.1477 15.6227 18.0591 15.4659L17.05 13.6273C17.25 13.2409 17.4114 12.8341 17.5477 12.4136L19.5659 11.8318C19.7386 11.7841 19.8659 11.6386 19.8932 11.4636C19.9636 10.9864 20 10.4977 20 10C20 9.50227 19.9636 9.01364 19.8932 8.53636C19.8659 8.35909 19.7386 8.21591 19.5659 8.16818L17.5477 7.58636C17.4136 7.16591 17.25 6.75682 17.05 6.37273L18.0591 4.53409C18.1455 4.37955 18.1341 4.18864 18.0318 4.04318C17.7432 3.65682 17.425 3.27955 17.0727 2.92727C16.7205 2.575 16.3455 2.25682 15.9568 1.96818C15.8136 1.86364 15.6227 1.85227 15.4659 1.94091L13.6273 2.95C13.2409 2.75 12.8341 2.58864 12.4136 2.45227L11.8318 0.434091C11.7841 0.261364 11.6386 0.134091 11.4636 0.106818C10.9864 0.0363636 10.4977 0 10 0ZM10 0.909091C10.3568 0.909091 10.7045 0.947727 11.05 0.986364L11.6114 2.90455C11.6545 3.05682 11.7727 3.175 11.925 3.21818C12.4568 3.36818 12.9636 3.58636 13.4386 3.85C13.575 3.925 13.7409 3.925 13.8795 3.85L15.6341 2.88409C15.9068 3.1 16.1773 3.32045 16.4295 3.57273C16.6818 3.825 16.9023 4.09545 17.1182 4.36818L16.1523 6.12273C16.0773 6.25909 16.0773 6.425 16.1523 6.56364C16.4182 7.03636 16.6341 7.54545 16.7841 8.07727C16.8273 8.22955 16.9455 8.34773 17.0977 8.39091L19.0159 8.95227C19.0568 9.29773 19.0932 9.64773 19.0932 10.0023C19.0932 10.3568 19.0545 10.7068 19.0159 11.0523L17.0977 11.6136C16.9455 11.6568 16.8273 11.775 16.7841 11.9273C16.6341 12.4591 16.4159 12.9659 16.1523 13.4409C16.0773 13.5773 16.0773 13.7432 16.1523 13.8818L17.1182 15.6364C16.9023 15.9091 16.6818 16.1795 16.4295 16.4318C16.1773 16.6841 15.9068 16.9045 15.6341 17.1205L13.8795 16.1545C13.7432 16.0795 13.5773 16.0795 13.4386 16.1545C12.9659 16.4205 12.4568 16.6364 11.925 16.7864C11.7727 16.8295 11.6545 16.9477 11.6114 17.1L11.05 19.0182C10.7045 19.0591 10.3545 19.0955 10 19.0955C9.64545 19.0955 9.29545 19.0568 8.95 19.0182L8.38864 17.1C8.34546 16.9477 8.22727 16.8295 8.075 16.7864C7.54318 16.6364 7.03636 16.4182 6.56136 16.1545C6.425 16.0795 6.25909 16.0795 6.12045 16.1545L4.36591 17.1205C4.09318 16.9045 3.82273 16.6841 3.57045 16.4318C3.31818 16.1795 3.09773 15.9091 2.88182 15.6364L3.84773 13.8818C3.92273 13.7455 3.92273 13.5795 3.84773 13.4409C3.58182 12.9682 3.36591 12.4591 3.21591 11.9273C3.17273 11.775 3.05455 11.6568 2.90227 11.6136L0.984091 11.0523C0.943182 10.7068 0.906818 10.3568 0.906818 10.0023C0.906818 9.64773 0.945455 9.29773 0.984091 8.95227L2.90227 8.39091C3.05455 8.34773 3.17273 8.22955 3.21591 8.07727C3.36591 7.54545 3.58409 7.03864 3.84773 6.56364C3.92273 6.42727 3.92273 6.26136 3.84773 6.12273L2.88182 4.36818C3.09773 4.09545 3.31818 3.825 3.57045 3.57273C3.82273 3.32045 4.09318 3.1 4.36591 2.88409L6.12045 3.85C6.25682 3.925 6.42273 3.925 6.56136 3.85C7.03409 3.58409 7.54318 3.36818 8.075 3.21818C8.22727 3.175 8.34546 3.05682 8.38864 2.90455L8.95 0.986364C9.29545 0.945455 9.64545 0.909091 10 0.909091ZM10 5.45455C7.49545 5.45455 5.45455 7.49545 5.45455 10C5.45455 12.5045 7.49545 14.5455 10 14.5455C12.5045 14.5455 14.5455 12.5045 14.5455 10C14.5455 7.49545 12.5045 5.45455 10 5.45455ZM10 6.36364C12.0136 6.36364 13.6364 7.98636 13.6364 10C13.6364 12.0136 12.0136 13.6364 10 13.6364C7.98636 13.6364 6.36364 12.0136 6.36364 10C6.36364 7.98636 7.98636 6.36364 10 6.36364Z" fill="#C2C2C2"/>
</g>
<defs>
<clipPath id="clip0_155_27424">
<rect width="20" height="20" fill="white"/>
</clipPath>
</defs>
</svg>
