<svg width="18" height="18" viewBox="0 0 18 18" fill="none" xmlns="http://www.w3.org/2000/svg">
<path d="M9 16C8.825 16 8.64688 15.967 8.46563 15.901C8.28438 15.835 8.125 15.7294 7.9875 15.5842L6.69375 14.3366C5.36875 13.0561 4.17188 11.7855 3.10313 10.5248C2.03438 9.26403 1.5 7.87459 1.5 6.35644C1.5 5.11551 1.89375 4.07921 2.68125 3.24752C3.46875 2.41584 4.45 2 5.625 2C6.2875 2 6.9125 2.14851 7.5 2.44554C8.0875 2.74257 8.5875 3.14851 9 3.66337C9.4125 3.14851 9.9125 2.74257 10.5 2.44554C11.0875 2.14851 11.7125 2 12.375 2C13.55 2 14.5313 2.41584 15.3188 3.24752C16.1063 4.07921 16.5 5.11551 16.5 6.35644C16.5 7.87459 15.9688 9.26733 14.9063 10.5347C13.8438 11.802 12.6375 13.0759 11.2875 14.3564L10.0125 15.5842C9.875 15.7294 9.71563 15.835 9.53438 15.901C9.35313 15.967 9.175 16 9 16ZM8.2875 5.24752C7.925 4.70627 7.5375 4.29373 7.125 4.0099C6.7125 3.72607 6.2125 3.58416 5.625 3.58416C4.875 3.58416 4.25 3.84818 3.75 4.37624C3.25 4.90429 3 5.56436 3 6.35644C3 7.0429 3.23125 7.77228 3.69375 8.54455C4.15625 9.31683 4.70938 10.066 5.35313 10.7921C5.99688 11.5182 6.65938 12.198 7.34063 12.8317C8.02188 13.4653 8.575 13.9868 9 14.396C9.425 13.9868 9.97813 13.4653 10.6594 12.8317C11.3406 12.198 12.0031 11.5182 12.6469 10.7921C13.2906 10.066 13.8438 9.31683 14.3063 8.54455C14.7688 7.77228 15 7.0429 15 6.35644C15 5.56436 14.75 4.90429 14.25 4.37624C13.75 3.84818 13.125 3.58416 12.375 3.58416C11.7875 3.58416 11.2875 3.72607 10.875 4.0099C10.4625 4.29373 10.075 4.70627 9.7125 5.24752C9.625 5.37954 9.51875 5.47855 9.39375 5.54455C9.26875 5.61056 9.1375 5.64356 9 5.64356C8.8625 5.64356 8.73125 5.61056 8.60625 5.54455C8.48125 5.47855 8.375 5.37954 8.2875 5.24752Z" fill="#C2C2C2"/>
</svg>
