<svg width="56" height="56" viewBox="0 0 56 56" fill="none" xmlns="http://www.w3.org/2000/svg">
<circle cx="28" cy="28" r="28" fill="white"/>
<path d="M42.96 28.3542C42.96 27.2492 42.8608 26.1867 42.6767 25.1667H28V31.1946H36.3867C36.0254 33.1425 34.9275 34.7929 33.2771 35.8979V39.8079H38.3133C41.26 37.095 42.96 33.1 42.96 28.3542Z" fill="#4285F4"/>
<path d="M28.0001 43.5833C32.2076 43.5833 35.7351 42.1879 38.3134 39.8079L33.2771 35.8979C31.8817 36.8329 30.0967 37.3854 28.0001 37.3854C23.9413 37.3854 20.5059 34.6442 19.2805 30.9608H14.0742V34.9983C16.6384 40.0913 21.9084 43.5833 28.0001 43.5833Z" fill="#34A853"/>
<path d="M19.2807 30.9608C18.9691 30.0258 18.792 29.0271 18.792 28C18.792 26.9729 18.9691 25.9741 19.2807 25.0391V21.0016H14.0745C12.9837 23.1732 12.416 25.5698 12.417 28C12.417 30.5146 13.0191 32.8946 14.0745 34.9983L19.2807 30.9608Z" fill="#FBBC05"/>
<path d="M28.0001 18.6146C30.288 18.6146 32.3421 19.4008 33.9571 20.945L38.4267 16.4754C35.728 13.9608 32.2005 12.4167 28.0001 12.4167C21.9084 12.4167 16.6384 15.9087 14.0742 21.0017L19.2805 25.0392C20.5059 21.3558 23.9413 18.6146 28.0001 18.6146Z" fill="#EA4335"/>
</svg>
