<svg width="39" height="37" viewBox="0 0 39 37" fill="none" xmlns="http://www.w3.org/2000/svg">
<path d="M28.9871 3.17831C28.3082 2.17431 26.9917 1.8288 25.9078 2.36609C24.7466 2.97194 24.2963 4.40038 24.9022 5.56155C24.9513 5.65241 25.0037 5.74102 25.0626 5.82509L28.2075 10.3164C28.4513 10.6372 28.4265 11.0834 28.1484 11.3745C27.839 11.6827 27.3407 11.6799 27.0324 11.3705C26.9988 11.3362 26.9661 11.2964 26.939 11.2576L22.0055 4.21184C21.3265 3.20784 20.01 2.86233 18.9261 3.39961C17.7659 3.99997 17.3124 5.43067 17.915 6.59411C17.9642 6.68498 18.0189 6.77681 18.0777 6.86088L22.1282 12.6456C22.3721 12.9664 22.3473 13.4126 22.0692 13.7037C21.7598 14.0119 21.2614 14.0091 20.9532 13.6997C20.9196 13.6654 20.8869 13.6256 20.8597 13.5868L15.9262 6.54103C15.2473 5.53703 13.9308 5.19152 12.8469 5.7288C11.6867 6.32916 11.2332 7.75986 11.8358 8.9233C11.885 9.01417 11.9396 9.106 11.9985 9.19007L16.9546 16.2682C17.1985 16.5889 17.1737 17.0352 16.8956 17.3263C16.5862 17.6345 16.0878 17.6317 15.7796 17.3223C15.746 17.288 15.7133 17.2482 15.6861 17.2094L4.46065 1.17774C3.78173 0.173735 2.4652 -0.171777 1.3813 0.36551C0.221096 0.965867 -0.232409 2.39657 0.370212 3.56001C0.419379 3.65087 0.474043 3.7427 0.53291 3.82678L14.9508 24.4177C15.1947 24.7384 15.1698 25.1847 14.8918 25.4758C14.5823 25.784 14.084 25.7812 13.7758 25.4717C13.7422 25.4375 13.7095 25.3977 13.6823 25.3589L10.0597 20.1853C8.17146 17.4886 6.08168 16.8508 4.05456 17.9474C3.84146 18.0628 3.59896 18.2808 3.52105 18.5137C3.43022 18.7556 3.46712 19.0285 3.61655 19.2419L11.6134 30.6626C11.6383 30.6982 11.6655 30.737 11.6904 30.7726C15.7237 36.4296 23.628 37.6702 29.3189 33.6854L32.9728 31.1269C38.6638 27.1421 40.1981 19.2924 36.265 13.5653L36.188 13.4553L28.9904 3.17605L28.9871 3.17831Z" fill="white"/>
</svg>
